<?xml version="1.0" standalone="no"?>
<!DOCTYPE svg PUBLIC "-//W3C//DTD SVG 20010904//EN"
 "http://www.w3.org/TR/2001/REC-SVG-20010904/DTD/svg10.dtd">
<svg version="1.0" xmlns="http://www.w3.org/2000/svg"
 width="200.000000pt" height="200.000000pt" viewBox="0 0 200.000000 200.000000"
 preserveAspectRatio="xMidYMid meet">

<g transform="translate(0.000000,200.000000) scale(0.100000,-0.100000)"
fill="#000000" stroke="none">
<path d="M865 1941 c-63 -8 -75 -16 -75 -49 0 -53 9 -56 142 -57 143 -2 237
-20 346 -67 253 -110 434 -328 497 -598 19 -82 20 -139 3 -122 -15 15 -61 15
-76 0 -20 -20 -14 -58 14 -92 68 -82 106 -116 129 -116 14 0 49 22 90 57 65
57 66 58 63 103 -3 43 -4 45 -33 44 -16 0 -37 -4 -46 -8 -14 -6 -17 4 -22 62
-29 303 -233 597 -512 739 -164 84 -368 124 -520 104z"/>
<path d="M382 1898 c-7 -7 -12 -26 -12 -44 0 -26 6 -34 30 -44 l30 -13 -57
-42 c-165 -121 -303 -324 -354 -522 -29 -113 -28 -396 2 -502 39 -141 143
-331 189 -346 53 -17 88 35 57 84 -140 226 -172 332 -164 546 5 147 20 210 76
330 58 125 139 227 250 314 37 29 38 30 34 7 -10 -48 74 -80 97 -37 21 40 60
159 60 184 0 30 -13 39 -113 73 -79 27 -107 30 -125 12z"/>
<path d="M896 1498 c-24 -19 -24 -67 0 -85 10 -7 33 -13 52 -13 45 0 68 -14
76 -46 5 -20 1 -33 -15 -50 l-22 -24 -324 0 c-205 0 -331 -4 -344 -10 -24 -13
-26 -62 -3 -85 15 -14 54 -16 364 -13 334 3 350 4 376 24 103 77 104 211 1
288 -34 25 -134 34 -161 14z"/>
<path d="M636 1384 c-20 -20 -20 -58 0 -78 23 -23 80 -21 97 4 l14 20 18 -20
c35 -39 115 -16 115 33 0 25 -36 57 -64 57 -13 0 -34 -8 -46 -18 -23 -18 -24
-18 -42 0 -22 22 -71 24 -92 2z"/>
<path d="M1351 1371 c-8 -5 -14 -24 -14 -41 0 -36 15 -50 55 -50 70 0 109 -40
86 -88 l-13 -27 -163 -5 c-149 -5 -165 -7 -178 -25 -16 -22 -11 -65 9 -77 7
-4 86 -8 177 -8 152 0 168 2 204 23 50 28 76 77 76 142 0 102 -64 165 -170
165 -30 0 -61 -4 -69 -9z"/>
<path d="M720 1147 c-28 -14 -39 -59 -19 -83 17 -21 95 -19 109 4 10 16 10 16
20 0 16 -26 94 -25 112 1 14 20 14 20 26 0 15 -23 83 -27 101 -5 20 24 9 69
-20 83 -33 16 -89 0 -89 -25 0 -13 -5 -11 -19 8 -14 18 -29 24 -56 24 -27 0
-42 -6 -56 -24 -15 -21 -19 -22 -19 -7 0 10 -12 22 -26 27 -32 12 -34 12 -64
-3z"/>
<path d="M548 1019 c-25 -14 -24 -75 1 -89 13 -6 140 -10 343 -10 178 0 328
-4 334 -8 23 -15 32 -46 22 -71 -12 -33 -25 -41 -70 -41 -40 0 -78 -27 -78
-55 0 -28 38 -55 78 -55 92 0 160 48 182 130 20 75 -21 159 -94 194 -29 14
-80 16 -368 16 -207 0 -340 -4 -350 -11z"/>
<path d="M457 782 c-53 -58 38 -127 93 -72 l20 20 20 -20 c39 -39 110 -17 110
35 0 53 -71 74 -111 34 l-21 -21 -14 21 c-19 27 -74 28 -97 3z"/>
<path d="M750 780 c-11 -11 -20 -27 -20 -35 0 -8 9 -24 20 -35 17 -17 33 -20
100 -20 67 0 83 -3 100 -20 43 -43 9 -100 -60 -100 -27 0 -47 -7 -60 -20 -26
-26 -25 -45 1 -71 19 -19 30 -21 81 -16 147 13 214 167 121 278 -39 45 -79 59
-178 59 -72 0 -88 -3 -105 -20z"/>
<path d="M1762 703 c-7 -3 -24 -29 -37 -59 -148 -336 -513 -548 -868 -505 -96
12 -120 18 -204 47 l-43 15 21 29 c24 32 19 64 -12 81 -20 10 -155 -10 -206
-31 -28 -12 -30 -47 -7 -151 20 -87 27 -99 65 -99 35 0 64 38 54 71 -6 19 -5
21 11 14 152 -64 257 -86 409 -86 212 0 392 56 560 176 69 49 187 169 233 236
50 74 102 185 102 218 0 40 -36 61 -78 44z"/>
</g>
</svg>
