<?xml version="1.0" standalone="no"?>
<!DOCTYPE svg PUBLIC "-//W3C//DTD SVG 20010904//EN"
 "http://www.w3.org/TR/2001/REC-SVG-20010904/DTD/svg10.dtd">
<svg version="1.0" xmlns="http://www.w3.org/2000/svg"
 width="200.000000pt" height="200.000000pt" viewBox="0 0 200.000000 200.000000"
 preserveAspectRatio="xMidYMid meet">

<g transform="translate(0.000000,200.000000) scale(0.100000,-0.100000)"
fill="#000000" stroke="none">
<path d="M865 1921 c-43 -5 -50 -9 -53 -30 -5 -34 14 -42 84 -35 72 8 212 -10
304 -38 92 -28 224 -99 298 -159 178 -147 311 -406 312 -608 l0 -65 -29 28
c-34 32 -66 32 -66 -1 0 -29 104 -153 128 -153 10 0 47 26 83 58 51 45 64 62
62 82 -4 35 -34 37 -69 4 -16 -15 -29 -23 -29 -18 0 40 -24 192 -40 249 -88
326 -355 584 -688 665 -87 21 -223 31 -297 21z"/>
<path d="M393 1874 c-9 -24 9 -48 46 -58 17 -5 31 -12 31 -15 0 -3 -21 -19
-48 -36 -66 -42 -186 -159 -237 -230 -79 -112 -137 -248 -165 -392 -16 -82 -8
-307 15 -393 21 -78 100 -249 144 -307 62 -85 107 -38 48 51 -103 155 -147
301 -147 491 0 289 122 531 352 700 33 25 63 44 65 42 2 -2 -1 -17 -7 -32 -15
-41 -4 -67 27 -63 23 3 30 14 55 83 16 44 27 89 26 100 -2 15 -22 27 -78 47
-88 31 -118 34 -127 12z"/>
<path d="M902 1473 c-17 -32 3 -53 51 -53 45 -1 67 -13 85 -47 18 -32 15 -48
-14 -82 l-26 -31 -336 -2 -337 -3 -3 -27 c-3 -22 2 -29 20 -33 13 -3 170 -5
350 -3 312 3 328 4 354 24 50 37 66 68 66 124 0 85 -54 140 -146 148 -46 4
-56 1 -64 -15z"/>
<path d="M650 1365 c-6 -8 -10 -22 -8 -32 4 -24 66 -25 81 -1 23 36 -45 67
-73 33z"/>
<path d="M779 1364 c-18 -22 1 -49 36 -49 35 0 54 27 36 49 -8 9 -24 16 -36
16 -12 0 -28 -7 -36 -16z"/>
<path d="M1356 1345 c-10 -28 5 -45 41 -45 73 0 125 -56 104 -113 -16 -41 -39
-47 -193 -47 -158 0 -186 -8 -174 -48 7 -21 12 -22 174 -22 147 0 170 2 196
19 45 30 66 70 66 126 0 56 -21 96 -66 126 -37 24 -139 27 -148 4z"/>
<path d="M726 1127 c-29 -21 -16 -51 23 -55 47 -5 65 23 35 52 -19 19 -35 20
-58 3z"/>
<path d="M856 1124 c-30 -29 -12 -57 35 -52 39 4 52 34 23 55 -23 17 -39 16
-58 -3z"/>
<path d="M989 1121 c-20 -16 -22 -21 -10 -35 20 -24 75 -18 80 8 3 18 -22 46
-40 46 -4 0 -17 -8 -30 -19z"/>
<path d="M554 996 c-3 -8 -4 -23 -2 -33 3 -17 24 -18 339 -21 l336 -2 23 -25
c52 -55 11 -135 -69 -135 -47 0 -67 -20 -51 -49 8 -16 21 -21 51 -21 77 0 136
41 159 113 21 66 -18 144 -87 173 -49 21 -691 20 -699 0z"/>
<path d="M469 764 c-18 -22 1 -49 36 -49 35 0 54 27 36 49 -8 9 -24 16 -36 16
-12 0 -28 -7 -36 -16z"/>
<path d="M599 764 c-18 -22 1 -49 36 -49 35 0 54 27 36 49 -8 9 -24 16 -36 16
-12 0 -28 -7 -36 -16z"/>
<path d="M760 765 c-10 -12 -11 -21 -3 -33 8 -13 28 -18 89 -20 91 -3 118 -13
134 -53 24 -56 -18 -109 -86 -109 -49 0 -74 -22 -57 -48 16 -26 114 -23 149 4
49 36 66 68 67 123 1 55 -16 88 -67 125 -38 29 -205 37 -226 11z"/>
<path d="M1721 593 c-137 -265 -376 -432 -678 -473 -141 -19 -339 12 -458 73
-42 21 -42 22 18 41 24 8 33 35 15 52 -12 12 -26 12 -108 -3 l-95 -18 -2 -35
c-2 -19 5 -66 15 -105 14 -56 21 -71 38 -73 33 -5 47 20 35 62 -5 20 -6 36 -1
36 4 0 34 -12 66 -26 213 -95 490 -102 710 -19 217 82 397 244 509 460 38 72
44 109 19 119 -29 11 -33 7 -83 -91z"/>
</g>
</svg>
