<?xml version="1.0" encoding="UTF-8" standalone="no"?>
<!DOCTYPE svg PUBLIC "-//W3C//DTD SVG 1.1//EN"
 "http://www.w3.org/Graphics/SVG/1.1/DTD/svg11.dtd">
<!-- Generated by graphviz version 2.47.0 (20210316.0004)
 -->
<!-- Title: dependencies Pages: 1 -->
<svg width="504pt" height="211pt"
 viewBox="0.00 0.00 504.00 211.00" xmlns="http://www.w3.org/2000/svg" xmlns:xlink="http://www.w3.org/1999/xlink">
<g id="graph0" class="graph" transform="scale(1 1) rotate(0) translate(4 207)">
<title>dependencies</title>
<polygon fill="white" stroke="transparent" points="-4,4 -4,-207 500,-207 500,4 -4,4"/>
<text text-anchor="start" x="227.01" y="-42.4" font-family="sans-serif" font-weight="bold" font-size="14.00">Legend</text>
<polygon fill="#ffffb3" stroke="transparent" points="14,-10 14,-30 34,-30 34,-10 14,-10"/>
<text text-anchor="start" x="37.63" y="-15.4" font-family="sans-serif" font-size="14.00"> &#160;Declarations</text>
<polygon fill="#8dd3c7" stroke="transparent" points="127,-10 127,-30 147,-30 147,-10 127,-10"/>
<text text-anchor="start" x="150.73" y="-15.4" font-family="sans-serif" font-size="14.00"> &#160;Module</text>
<polygon fill="#80b1d3" stroke="transparent" points="213,-10 213,-30 233,-30 233,-10 213,-10"/>
<text text-anchor="start" x="236.78" y="-15.4" font-family="sans-serif" font-size="14.00"> &#160;Bootstrap</text>
<polygon fill="#fdb462" stroke="transparent" points="310,-10 310,-30 330,-30 330,-10 310,-10"/>
<text text-anchor="start" x="333.67" y="-15.4" font-family="sans-serif" font-size="14.00"> &#160;Providers</text>
<polygon fill="#fb8072" stroke="transparent" points="406,-10 406,-30 426,-30 426,-10 406,-10"/>
<text text-anchor="start" x="429.73" y="-15.4" font-family="sans-serif" font-size="14.00"> &#160;Exports</text>
<g id="clust1" class="cluster">
<title>cluster_ZonesPageModule</title>
<polygon fill="none" stroke="black" stroke-dasharray="1,5" points="18,-70 18,-195 478,-195 478,-70 18,-70"/>
</g>
<g id="clust5" class="cluster">
<title>cluster_ZonesPageModule_imports</title>
<polygon fill="none" stroke="black" points="288,-78 288,-130 470,-130 470,-78 288,-78"/>
</g>
<g id="clust2" class="cluster">
<title>cluster_ZonesPageModule_declarations</title>
<polygon fill="none" stroke="black" points="26,-78 26,-130 280,-130 280,-78 26,-78"/>
</g>
<!-- ZoneTableComponent -->
<g id="node1" class="node">
<title>ZoneTableComponent</title>
<polygon fill="#ffffb3" stroke="black" points="271.97,-122 130.03,-122 130.03,-86 271.97,-86 271.97,-122"/>
<text text-anchor="middle" x="201" y="-99.8" font-family="Times,serif" font-size="14.00">ZoneTableComponent</text>
</g>
<!-- ZonesPageModule -->
<g id="node3" class="node">
<title>ZonesPageModule</title>
<polygon fill="#8dd3c7" stroke="black" points="261.47,-187 258.47,-191 237.47,-191 234.47,-187 140.53,-187 140.53,-151 261.47,-151 261.47,-187"/>
<text text-anchor="middle" x="201" y="-164.8" font-family="Times,serif" font-size="14.00">ZonesPageModule</text>
</g>
<!-- ZoneTableComponent&#45;&gt;ZonesPageModule -->
<g id="edge1" class="edge">
<title>ZoneTableComponent&#45;&gt;ZonesPageModule</title>
<path fill="none" stroke="black" d="M201,-122.11C201,-122.11 201,-140.99 201,-140.99"/>
<polygon fill="black" stroke="black" points="197.5,-140.99 201,-150.99 204.5,-140.99 197.5,-140.99"/>
</g>
<!-- ZonesPage -->
<g id="node2" class="node">
<title>ZonesPage</title>
<polygon fill="#ffffb3" stroke="black" points="111.92,-122 34.08,-122 34.08,-86 111.92,-86 111.92,-122"/>
<text text-anchor="middle" x="73" y="-99.8" font-family="Times,serif" font-size="14.00">ZonesPage</text>
</g>
<!-- ZonesPage&#45;&gt;ZonesPageModule -->
<g id="edge2" class="edge">
<title>ZonesPage&#45;&gt;ZonesPageModule</title>
<path fill="none" stroke="black" d="M73,-122.11C73,-141.34 73,-169 73,-169 73,-169 130.37,-169 130.37,-169"/>
<polygon fill="black" stroke="black" points="130.37,-172.5 140.37,-169 130.37,-165.5 130.37,-172.5"/>
</g>
<!-- ZonesPageRoutingModule -->
<g id="node4" class="node">
<title>ZonesPageRoutingModule</title>
<polygon fill="#8dd3c7" stroke="black" points="462.09,-122 459.09,-126 438.09,-126 435.09,-122 295.91,-122 295.91,-86 462.09,-86 462.09,-122"/>
<text text-anchor="middle" x="379" y="-99.8" font-family="Times,serif" font-size="14.00">ZonesPageRoutingModule</text>
</g>
<!-- ZonesPageRoutingModule&#45;&gt;ZonesPageModule -->
<g id="edge3" class="edge">
<title>ZonesPageRoutingModule&#45;&gt;ZonesPageModule</title>
<path fill="none" stroke="black" d="M379,-122.11C379,-141.34 379,-169 379,-169 379,-169 271.76,-169 271.76,-169"/>
<polygon fill="black" stroke="black" points="271.76,-165.5 261.76,-169 271.76,-172.5 271.76,-165.5"/>
</g>
</g>
</svg>
